<?xml version="1.0" encoding="utf-8"?>
<!-- Generator: Adobe Illustrator 24.1.2, SVG Export Plug-In . SVG Version: 6.00 Build 0)  -->
<svg version="1.1" id="Layer_1" xmlns="http://www.w3.org/2000/svg" xmlns:xlink="http://www.w3.org/1999/xlink" x="0px" y="0px"
	 viewBox="0 0 631.9 187" style="enable-background:new 0 0 631.9 187;" xml:space="preserve">
<style type="text/css">
	.st0{clip-path:url(#SVGID_2_);}
	.st1{clip-path:url(#SVGID_4_);}
	.st2{clip-path:url(#SVGID_6_);}
	.st3{clip-path:url(#SVGID_8_);fill-rule:evenodd;clip-rule:evenodd;fill:#1A1A1A;}
	.st4{clip-path:url(#SVGID_10_);}
	.st5{fill:#FFFFFF;}
	.st6{font-family:'ArialMT';}
	.st7{font-size:10.5377px;}
	.st8{clip-path:url(#SVGID_12_);fill:#FFBFBF;}
	.st9{clip-path:url(#SVGID_14_);}
	.st10{fill:#040135;}
	.st11{clip-path:url(#SVGID_16_);fill:#F4D878;}
	.st12{clip-path:url(#SVGID_18_);}
	.st13{clip-path:url(#SVGID_20_);}
	.st14{clip-path:url(#SVGID_22_);}
	.st15{clip-path:url(#SVGID_24_);}
	.st16{clip-path:url(#SVGID_26_);fill-rule:evenodd;clip-rule:evenodd;fill:#1A1A1A;}
	.st17{clip-path:url(#SVGID_28_);}
	.st18{clip-path:url(#SVGID_30_);}
	.st19{clip-path:url(#SVGID_32_);}
	.st20{clip-path:url(#SVGID_34_);}
	.st21{clip-path:url(#SVGID_36_);fill-rule:evenodd;clip-rule:evenodd;fill:#F4D878;}
	.st22{clip-path:url(#SVGID_38_);}
	.st23{clip-path:url(#SVGID_38_);fill:none;stroke:#313131;stroke-width:0.8788;}
	.st24{clip-path:url(#SVGID_38_);fill:none;stroke:#313131;stroke-width:0.7909;}
	.st25{clip-path:url(#SVGID_40_);fill:#88C2FB;}
	.st26{clip-path:url(#SVGID_42_);}
	.st27{fill:#1A1A1A;}
	.st28{clip-path:url(#SVGID_42_);fill:none;stroke:#333333;stroke-width:0.8788;}
	.st29{clip-path:url(#SVGID_42_);fill:#333333;}
	.st30{clip-path:url(#SVGID_44_);}
	.st31{clip-path:url(#SVGID_46_);}
	.st32{clip-path:url(#SVGID_48_);}
	.st33{clip-path:url(#SVGID_50_);fill-rule:evenodd;clip-rule:evenodd;fill:#FFBFBF;}
	.st34{clip-path:url(#SVGID_52_);}
	.st35{clip-path:url(#SVGID_52_);fill:none;stroke:#333333;stroke-width:0.8788;}
	.st36{clip-path:url(#SVGID_52_);fill:#333333;}
	.st37{clip-path:url(#SVGID_54_);}
	.st38{clip-path:url(#SVGID_56_);}
	.st39{clip-path:url(#SVGID_58_);}
	.st40{clip-path:url(#SVGID_60_);fill-rule:evenodd;clip-rule:evenodd;fill:#88C2FB;}
	.st41{clip-path:url(#SVGID_62_);}
	.st42{clip-path:url(#SVGID_62_);fill:none;stroke:#333333;stroke-width:0.8788;}
	.st43{clip-path:url(#SVGID_62_);fill:#333333;}
	.st44{font-family:'OpenSans';}
</style>
<g>
	<defs>
		<rect id="SVGID_1_" width="632" height="186.9"/>
	</defs>
	<clipPath id="SVGID_2_">
		<use xlink:href="#SVGID_1_"  style="overflow:visible;"/>
	</clipPath>
	<g class="st0">
		<defs>
			<rect id="SVGID_3_" width="632" height="186.9"/>
		</defs>
		<clipPath id="SVGID_4_">
			<use xlink:href="#SVGID_3_"  style="overflow:visible;"/>
		</clipPath>
		<g class="st1">
			<defs>
				<rect id="SVGID_5_" x="539.2" y="4" width="89.2" height="44.5"/>
			</defs>
			<clipPath id="SVGID_6_">
				<use xlink:href="#SVGID_5_"  style="overflow:visible;"/>
			</clipPath>
			<g class="st2">
				<defs>
					<path id="SVGID_7_" d="M539.2,39.6V12.9c0-1.2,0.2-2.3,0.7-3.4c0.5-1.1,1.1-2.1,1.9-2.9s1.8-1.5,2.9-1.9
						c1.1-0.5,2.2-0.7,3.4-0.7h71.4c1.2,0,2.3,0.2,3.4,0.7c1.1,0.5,2.1,1.1,2.9,1.9c0.8,0.8,1.5,1.8,1.9,2.9
						c0.5,1.1,0.7,2.2,0.7,3.4v26.7c0,1.2-0.2,2.3-0.7,3.4s-1.1,2.1-1.9,2.9c-0.8,0.8-1.8,1.5-2.9,1.9c-1.1,0.5-2.2,0.7-3.4,0.7
						h-71.4c-1.2,0-2.3-0.2-3.4-0.7c-1.1-0.5-2.1-1.1-2.9-1.9c-0.8-0.8-1.5-1.8-1.9-2.9S539.2,40.8,539.2,39.6z"/>
				</defs>
				<clipPath id="SVGID_8_">
					<use xlink:href="#SVGID_7_"  style="overflow:visible;"/>
				</clipPath>
				<path class="st3" d="M548.1,4h71.4c0.6,0,1.2,0.1,1.7,0.2c0.6,0.1,1.1,0.3,1.7,0.5c0.5,0.2,1.1,0.5,1.5,0.8s0.9,0.7,1.4,1.1
					c0.4,0.4,0.8,0.9,1.1,1.4c0.3,0.5,0.6,1,0.8,1.5c0.2,0.5,0.4,1.1,0.5,1.7c0.1,0.6,0.2,1.2,0.2,1.7v26.7c0,0.6-0.1,1.2-0.2,1.7
					c-0.1,0.6-0.3,1.1-0.5,1.7c-0.2,0.5-0.5,1.1-0.8,1.5s-0.7,0.9-1.1,1.4c-0.4,0.4-0.9,0.8-1.4,1.1c-0.5,0.3-1,0.6-1.5,0.8
					s-1.1,0.4-1.7,0.5c-0.6,0.1-1.2,0.2-1.7,0.2h-71.4c-0.6,0-1.2-0.1-1.7-0.2c-0.6-0.1-1.1-0.3-1.7-0.5s-1.1-0.5-1.5-0.8
					c-0.5-0.3-0.9-0.7-1.4-1.1c-0.4-0.4-0.8-0.9-1.1-1.4s-0.6-1-0.8-1.5s-0.4-1.1-0.5-1.7c-0.1-0.6-0.2-1.2-0.2-1.7V12.9
					c0-0.6,0.1-1.2,0.2-1.7c0.1-0.6,0.3-1.1,0.5-1.7c0.2-0.5,0.5-1.1,0.8-1.5c0.3-0.5,0.7-0.9,1.1-1.4s0.9-0.8,1.4-1.1
					s1-0.6,1.5-0.8c0.5-0.2,1.1-0.4,1.7-0.5C546.9,4,547.5,4,548.1,4z"/>
			</g>
		</g>
	</g>
</g>
<g>
	<defs>
		<rect id="SVGID_9_" width="632" height="186.9"/>
	</defs>
	<clipPath id="SVGID_10_">
		<use xlink:href="#SVGID_9_"  style="overflow:visible;"/>
	</clipPath>
	<g class="st4">
		<text transform="matrix(1.0015 0 0 1 550.3584 30.8487)" class="st5 st6 st7">Motor Outputs</text>
	</g>
</g>
<g>
	<defs>
		<rect id="SVGID_11_" x="271.8" y="4" width="88.4" height="44.5"/>
	</defs>
	<clipPath id="SVGID_12_">
		<use xlink:href="#SVGID_11_"  style="overflow:visible;"/>
	</clipPath>
	<rect x="271.8" y="4" class="st8" width="88.4" height="44.5"/>
</g>
<g>
	<defs>
		<rect id="SVGID_13_" width="632" height="186.9"/>
	</defs>
	<clipPath id="SVGID_14_">
		<use xlink:href="#SVGID_13_"  style="overflow:visible;"/>
	</clipPath>
	<g class="st9">
		<text transform="matrix(1.0014 0 0 1 283.1753 18.9937)" class="st10 st6 st7">Fault Isolation</text>
	</g>
	<g class="st9">
		<text transform="matrix(1.0014 0 0 1 348.8721 18.9937)" class="st10 st6 st7"> </text>
	</g>
	<g class="st9">
		<text transform="matrix(1.0109 0 0 1 286.1094 30.8487)" class="st10 st6 st7">and </text>
	</g>
	<g class="st9">
		<text transform="matrix(1.0109 0 0 1 306.2539 30.8487)" class="st10 st6 st7">Analysis</text>
	</g>
	<g class="st9">
		<text transform="matrix(1.0109 0 0 1 345.9199 30.8487)" class="st10 st6 st7"> </text>
	</g>
	<g class="st9">
		<text transform="matrix(1.0015 0 0 1 298.7236 42.7036)" class="st10 st6 st7">Module</text>
	</g>
</g>
<g>
	<defs>
		<rect id="SVGID_15_" x="137.6" y="4" width="89.2" height="44.5"/>
	</defs>
	<clipPath id="SVGID_16_">
		<use xlink:href="#SVGID_15_"  style="overflow:visible;"/>
	</clipPath>
	<rect x="137.6" y="4" class="st11" width="89.2" height="44.5"/>
</g>
<g>
	<defs>
		<rect id="SVGID_17_" width="632" height="186.9"/>
	</defs>
	<clipPath id="SVGID_18_">
		<use xlink:href="#SVGID_17_"  style="overflow:visible;"/>
	</clipPath>
	<g class="st12">
		<text transform="matrix(1.0014 0 0 1 146.6909 24.9209)" class="st10 st6 st7">Fault Detection</text>
	</g>
	<g class="st12">
		<text transform="matrix(1.0014 0 0 1 217.665 24.9209)" class="st10 st6 st7"> </text>
	</g>
	<g class="st12">
		<text transform="matrix(1.0015 0 0 1 164.8779 36.7764)" class="st10 st6 st7">Module</text>
	</g>
</g>
<g>
	<defs>
		<rect id="SVGID_19_" width="632" height="186.9"/>
	</defs>
	<clipPath id="SVGID_20_">
		<use xlink:href="#SVGID_19_"  style="overflow:visible;"/>
	</clipPath>
	<g class="st13">
		<defs>
			<rect id="SVGID_21_" width="632" height="186.9"/>
		</defs>
		<clipPath id="SVGID_22_">
			<use xlink:href="#SVGID_21_"  style="overflow:visible;"/>
		</clipPath>
		<g class="st14">
			<defs>
				<rect id="SVGID_23_" x="3.7" y="4" width="89.2" height="44.5"/>
			</defs>
			<clipPath id="SVGID_24_">
				<use xlink:href="#SVGID_23_"  style="overflow:visible;"/>
			</clipPath>
			<g class="st15">
				<defs>
					<path id="SVGID_25_" d="M3.7,39.6V12.9c0-1.2,0.2-2.3,0.7-3.4c0.5-1.1,1.1-2.1,1.9-2.9s1.8-1.5,2.9-1.9S11.5,4,12.6,4H84
						c1.2,0,2.3,0.2,3.4,0.7c1.1,0.5,2.1,1.1,2.9,1.9c0.8,0.8,1.5,1.8,1.9,2.9c0.5,1.1,0.7,2.2,0.7,3.4v26.7c0,1.2-0.2,2.3-0.7,3.4
						c-0.5,1.1-1.1,2.1-1.9,2.9c-0.8,0.8-1.8,1.5-2.9,1.9c-1.1,0.5-2.2,0.7-3.4,0.7H12.6c-1.2,0-2.3-0.2-3.4-0.7s-2.1-1.1-2.9-1.9
						c-0.8-0.8-1.5-1.8-1.9-2.9S3.7,40.8,3.7,39.6z"/>
				</defs>
				<clipPath id="SVGID_26_">
					<use xlink:href="#SVGID_25_"  style="overflow:visible;"/>
				</clipPath>
				<path class="st16" d="M12.6,4H84c0.6,0,1.2,0.1,1.7,0.2c0.6,0.1,1.1,0.3,1.7,0.5C88,4.9,88.5,5.1,89,5.5
					c0.5,0.3,0.9,0.7,1.4,1.1s0.8,0.9,1.1,1.4c0.3,0.5,0.6,1,0.8,1.5c0.2,0.5,0.4,1.1,0.5,1.7c0.1,0.6,0.2,1.2,0.2,1.7v26.7
					c0,0.6-0.1,1.2-0.2,1.7c-0.1,0.6-0.3,1.1-0.5,1.7c-0.2,0.5-0.5,1.1-0.8,1.5c-0.3,0.5-0.7,0.9-1.1,1.4c-0.4,0.4-0.9,0.8-1.4,1.1
					c-0.5,0.3-1,0.6-1.5,0.8s-1.1,0.4-1.7,0.5c-0.6,0.1-1.2,0.2-1.7,0.2H12.6c-0.6,0-1.2-0.1-1.7-0.2c-0.6-0.1-1.1-0.3-1.7-0.5
					c-0.5-0.2-1.1-0.5-1.5-0.8c-0.5-0.3-0.9-0.7-1.4-1.1c-0.4-0.4-0.8-0.9-1.1-1.4s-0.6-1-0.8-1.5c-0.2-0.5-0.4-1.1-0.5-1.7
					c-0.1-0.6-0.2-1.2-0.2-1.7V12.9c0-0.6,0.1-1.2,0.2-1.7C4,10.6,4.2,10,4.4,9.5c0.2-0.5,0.5-1.1,0.8-1.5C5.6,7.4,5.9,7,6.3,6.6
					c0.4-0.4,0.9-0.8,1.4-1.1c0.5-0.3,1-0.6,1.5-0.8c0.5-0.2,1.1-0.4,1.7-0.5C11.5,4,12.1,4,12.6,4z"/>
			</g>
		</g>
	</g>
</g>
<g>
	<defs>
		<rect id="SVGID_27_" width="632" height="186.9"/>
	</defs>
	<clipPath id="SVGID_28_">
		<use xlink:href="#SVGID_27_"  style="overflow:visible;"/>
	</clipPath>
	<g class="st17">
		<text transform="matrix(1.0014 0 0 1 18.7061 30.8487)" class="st5 st6 st7">Sensor input</text>
	</g>
</g>
<g>
	<defs>
		<rect id="SVGID_29_" width="632" height="186.9"/>
	</defs>
	<clipPath id="SVGID_30_">
		<use xlink:href="#SVGID_29_"  style="overflow:visible;"/>
	</clipPath>
	<g class="st18">
		<defs>
			<rect id="SVGID_31_" width="632" height="186.9"/>
		</defs>
		<clipPath id="SVGID_32_">
			<use xlink:href="#SVGID_31_"  style="overflow:visible;"/>
		</clipPath>
		<g class="st19">
			<defs>
				<rect id="SVGID_33_" x="137.6" y="93.1" width="89.2" height="44.5"/>
			</defs>
			<clipPath id="SVGID_34_">
				<use xlink:href="#SVGID_33_"  style="overflow:visible;"/>
			</clipPath>
			<g class="st20">
				<defs>
					<path id="SVGID_35_" d="M137.6,128.7V102c0-1.2,0.2-2.3,0.7-3.4c0.5-1.1,1.1-2.1,1.9-2.9c0.8-0.8,1.8-1.5,2.9-1.9
						c1.1-0.5,2.2-0.7,3.4-0.7h71.4c1.2,0,2.3,0.2,3.4,0.7c1.1,0.5,2.1,1.1,2.9,1.9c0.8,0.8,1.5,1.8,1.9,2.9
						c0.5,1.1,0.7,2.2,0.7,3.4v26.7c0,1.2-0.2,2.3-0.7,3.4c-0.5,1.1-1.1,2.1-1.9,2.9c-0.8,0.8-1.8,1.5-2.9,1.9
						c-1.1,0.5-2.2,0.7-3.4,0.7h-71.4c-1.2,0-2.3-0.2-3.4-0.7c-1.1-0.5-2.1-1.1-2.9-1.9c-0.8-0.8-1.5-1.8-1.9-2.9
						C137.8,131,137.6,129.9,137.6,128.7z"/>
				</defs>
				<clipPath id="SVGID_36_">
					<use xlink:href="#SVGID_35_"  style="overflow:visible;"/>
				</clipPath>
				<path class="st21" d="M146.5,93.1h71.4c0.6,0,1.2,0.1,1.7,0.2s1.1,0.3,1.7,0.5c0.5,0.2,1.1,0.5,1.5,0.8c0.5,0.3,0.9,0.7,1.4,1.1
					c0.4,0.4,0.8,0.9,1.1,1.4c0.3,0.5,0.6,1,0.8,1.5c0.2,0.5,0.4,1.1,0.5,1.7c0.1,0.6,0.2,1.2,0.2,1.7v26.7c0,0.6-0.1,1.2-0.2,1.7
					c-0.1,0.6-0.3,1.1-0.5,1.7c-0.2,0.5-0.5,1.1-0.8,1.5c-0.3,0.5-0.7,0.9-1.1,1.4c-0.4,0.4-0.9,0.8-1.4,1.1s-1,0.6-1.5,0.8
					c-0.5,0.2-1.1,0.4-1.7,0.5c-0.6,0.1-1.2,0.2-1.7,0.2h-71.4c-0.6,0-1.2-0.1-1.7-0.2c-0.6-0.1-1.1-0.3-1.7-0.5
					c-0.5-0.2-1.1-0.5-1.5-0.8c-0.5-0.3-0.9-0.7-1.4-1.1c-0.4-0.4-0.8-0.9-1.1-1.4c-0.3-0.5-0.6-1-0.8-1.5c-0.2-0.5-0.4-1.1-0.5-1.7
					c-0.1-0.6-0.2-1.2-0.2-1.7V102c0-0.6,0.1-1.2,0.2-1.7c0.1-0.6,0.3-1.1,0.5-1.7c0.2-0.5,0.5-1.1,0.8-1.5c0.3-0.5,0.7-0.9,1.1-1.4
					c0.4-0.4,0.9-0.8,1.4-1.1c0.5-0.3,1-0.6,1.5-0.8c0.5-0.2,1.1-0.4,1.7-0.5C145.3,93.1,145.9,93.1,146.5,93.1z"/>
			</g>
		</g>
	</g>
</g>
<g>
	<defs>
		<rect id="SVGID_37_" width="632" height="186.9"/>
	</defs>
	<clipPath id="SVGID_38_">
		<use xlink:href="#SVGID_37_"  style="overflow:visible;"/>
	</clipPath>
	<g class="st22">
		<text transform="matrix(1.0102 0 0 1 148.1616 114.0176)" class="st10 st6 st7">PCA</text>
	</g>
	<g class="st22">
		<text transform="matrix(1.0102 0 0 1 169.4609 114.0176)" class="st10 st6 st7"> based in-</text>
	</g>
	<g class="st22">
		<text transform="matrix(1.0102 0 0 1 216.208 114.0176)" class="st10 st6 st7"> </text>
	</g>
	<g class="st22">
		<text transform="matrix(1.0014 0 0 1 148.1543 125.8721)" class="st10 st6 st7">flight detection</text>
	</g>
	<path class="st23" d="M93.3,26.2c16.4,0,24.6,0,41.1,0"/>
	<path class="st24" d="M133.1,26.2h3.6 M133.1,22.6l3.6,3.6l-3.6,3.6"/>
	<path class="st23" d="M227.2,26.2c16.6,0,24.9,0,41.5,0"/>
	<path class="st24" d="M267.3,26.2h3.6 M267.3,22.6l3.6,3.6l-3.6,3.6"/>
</g>
<g>
	<defs>
		<rect id="SVGID_39_" x="405.1" y="4" width="89.2" height="44.5"/>
	</defs>
	<clipPath id="SVGID_40_">
		<use xlink:href="#SVGID_39_"  style="overflow:visible;"/>
	</clipPath>
	<rect x="405.1" y="4" class="st25" width="89.2" height="44.5"/>
</g>
<g>
	<defs>
		<rect id="SVGID_41_" width="632" height="186.9"/>
	</defs>
	<clipPath id="SVGID_42_">
		<use xlink:href="#SVGID_41_"  style="overflow:visible;"/>
	</clipPath>
	<g class="st26">
		<text transform="matrix(1.004 0 0 1 413.6406 24.9209)" class="st27 st6 st7">Fault </text>
	</g>
	<g class="st26">
		<text transform="matrix(1.004 0 0 1 439.9102 24.9209)" class="st27 st6 st7">T</text>
	</g>
	<g class="st26">
		<text transform="matrix(1.004 0 0 1 445.2002 24.9209)" class="st27 st6 st7">olerance</text>
	</g>
	<g class="st26">
		<text transform="matrix(1.004 0 0 1 485.7842 24.9209)" class="st27 st6 st7"> </text>
	</g>
	<g class="st26">
		<text transform="matrix(1.0015 0 0 1 432.4121 36.7764)" class="st27 st6 st7">Module</text>
	</g>
	<line class="st28" x1="360.6" y1="26.2" x2="400.6" y2="26.2"/>
	<polygon class="st29" points="399.5,22.9 405.1,26.2 399.5,29.6 	"/>
	<line class="st28" x1="182.2" y1="48.9" x2="182.2" y2="88.6"/>
	<polygon class="st29" points="185.5,87.5 182.2,93.1 178.9,87.5 	"/>
</g>
<g>
	<defs>
		<rect id="SVGID_43_" width="632" height="186.9"/>
	</defs>
	<clipPath id="SVGID_44_">
		<use xlink:href="#SVGID_43_"  style="overflow:visible;"/>
	</clipPath>
	<g class="st30">
		<defs>
			<rect id="SVGID_45_" width="632" height="186.9"/>
		</defs>
		<clipPath id="SVGID_46_">
			<use xlink:href="#SVGID_45_"  style="overflow:visible;"/>
		</clipPath>
		<g class="st31">
			<defs>
				<rect id="SVGID_47_" x="271.8" y="90.7" width="88.4" height="44.5"/>
			</defs>
			<clipPath id="SVGID_48_">
				<use xlink:href="#SVGID_47_"  style="overflow:visible;"/>
			</clipPath>
			<g class="st32">
				<defs>
					<path id="SVGID_49_" d="M271.8,126.3V99.6c0-1.2,0.2-2.3,0.7-3.4c0.5-1.1,1.1-2.1,1.9-2.9c0.8-0.8,1.8-1.5,2.9-1.9
						c1.1-0.5,2.2-0.7,3.4-0.7h70.6c1.2,0,2.3,0.2,3.4,0.7c1.1,0.5,2.1,1.1,2.9,1.9c0.8,0.8,1.5,1.8,1.9,2.9
						c0.5,1.1,0.7,2.2,0.7,3.4v26.7c0,1.2-0.2,2.3-0.7,3.4c-0.5,1.1-1.1,2.1-1.9,2.9c-0.8,0.8-1.8,1.5-2.9,1.9
						c-1.1,0.5-2.2,0.7-3.4,0.7h-70.6c-1.2,0-2.3-0.2-3.4-0.7c-1.1-0.5-2.1-1.1-2.9-1.9c-0.8-0.8-1.5-1.8-1.9-2.9
						C272,128.6,271.8,127.5,271.8,126.3z"/>
				</defs>
				<clipPath id="SVGID_50_">
					<use xlink:href="#SVGID_49_"  style="overflow:visible;"/>
				</clipPath>
				<path class="st33" d="M280.7,90.7h70.6c0.6,0,1.2,0.1,1.7,0.2c0.6,0.1,1.1,0.3,1.7,0.5s1.1,0.5,1.5,0.8c0.5,0.3,0.9,0.7,1.4,1.1
					c0.4,0.4,0.8,0.9,1.1,1.4c0.3,0.5,0.6,1,0.8,1.5c0.2,0.5,0.4,1.1,0.5,1.7c0.1,0.6,0.2,1.2,0.2,1.7v26.7c0,0.6-0.1,1.2-0.2,1.7
					c-0.1,0.6-0.3,1.1-0.5,1.7c-0.2,0.5-0.5,1.1-0.8,1.5s-0.7,0.9-1.1,1.4c-0.4,0.4-0.9,0.8-1.4,1.1c-0.5,0.3-1,0.6-1.5,0.8
					s-1.1,0.4-1.7,0.5c-0.6,0.1-1.2,0.2-1.7,0.2h-70.6c-0.6,0-1.2-0.1-1.7-0.2c-0.6-0.1-1.1-0.3-1.7-0.5c-0.5-0.2-1.1-0.5-1.5-0.8
					c-0.5-0.3-0.9-0.7-1.4-1.1c-0.4-0.4-0.8-0.9-1.1-1.4s-0.6-1-0.8-1.5c-0.2-0.5-0.4-1.1-0.5-1.7c-0.1-0.6-0.2-1.2-0.2-1.7V99.6
					c0-0.6,0.1-1.2,0.2-1.7c0.1-0.6,0.3-1.1,0.5-1.7c0.2-0.5,0.5-1.1,0.8-1.5c0.3-0.5,0.7-0.9,1.1-1.4c0.4-0.4,0.9-0.8,1.4-1.1
					c0.5-0.3,1-0.6,1.5-0.8c0.5-0.2,1.1-0.4,1.7-0.5C279.6,90.7,280.2,90.7,280.7,90.7z"/>
			</g>
		</g>
	</g>
</g>
<g>
	<defs>
		<rect id="SVGID_51_" width="632" height="186.9"/>
	</defs>
	<clipPath id="SVGID_52_">
		<use xlink:href="#SVGID_51_"  style="overflow:visible;"/>
	</clipPath>
	<g class="st34">
		<text transform="matrix(1.0015 0 0 1 291.9766 105.6924)" class="st10 st6 st7">T</text>
	</g>
	<g class="st34">
		<text transform="matrix(1.0015 0 0 1 297.8408 105.6924)" class="st10 st6 st7">wo stage</text>
	</g>
	<g class="st34">
		<text transform="matrix(1.0015 0 0 1 340.0811 105.6924)" class="st10 st6 st7"> </text>
	</g>
	<g class="st34">
		<text transform="matrix(1.0015 0 0 1 279.9531 117.5469)" class="st10 st6 st7">Rotation Forest</text>
	</g>
	<g class="st34">
		<text transform="matrix(1.0015 0 0 1 352.0986 117.5469)" class="st10 st6 st7"> </text>
	</g>
	<g class="st34">
		<text transform="matrix(1.0014 0 0 1 295.502 129.4014)" class="st10 st6 st7">classifier</text>
	</g>
	<line class="st35" x1="316" y1="48.9" x2="316" y2="86.2"/>
	<polygon class="st36" points="319.4,85.1 316,90.7 312.7,85.1 	"/>
</g>
<g>
	<defs>
		<rect id="SVGID_53_" width="632" height="186.9"/>
	</defs>
	<clipPath id="SVGID_54_">
		<use xlink:href="#SVGID_53_"  style="overflow:visible;"/>
	</clipPath>
	<g class="st37">
		<defs>
			<rect id="SVGID_55_" width="632" height="186.9"/>
		</defs>
		<clipPath id="SVGID_56_">
			<use xlink:href="#SVGID_55_"  style="overflow:visible;"/>
		</clipPath>
		<g class="st38">
			<defs>
				<rect id="SVGID_57_" x="405.1" y="90.7" width="89.2" height="44.5"/>
			</defs>
			<clipPath id="SVGID_58_">
				<use xlink:href="#SVGID_57_"  style="overflow:visible;"/>
			</clipPath>
			<g class="st39">
				<defs>
					<path id="SVGID_59_" d="M405.1,126.3V99.6c0-1.2,0.2-2.3,0.7-3.4c0.5-1.1,1.1-2.1,1.9-2.9c0.8-0.8,1.8-1.5,2.9-1.9
						c1.1-0.5,2.2-0.7,3.4-0.7h71.4c1.2,0,2.3,0.2,3.4,0.7c1.1,0.5,2.1,1.1,2.9,1.9c0.8,0.8,1.5,1.8,1.9,2.9
						c0.5,1.1,0.7,2.2,0.7,3.4v26.7c0,1.2-0.2,2.3-0.7,3.4c-0.5,1.1-1.1,2.1-1.9,2.9c-0.8,0.8-1.8,1.5-2.9,1.9
						c-1.1,0.5-2.2,0.7-3.4,0.7H414c-1.2,0-2.3-0.2-3.4-0.7c-1.1-0.5-2.1-1.1-2.9-1.9c-0.8-0.8-1.5-1.8-1.9-2.9
						S405.1,127.5,405.1,126.3z"/>
				</defs>
				<clipPath id="SVGID_60_">
					<use xlink:href="#SVGID_59_"  style="overflow:visible;"/>
				</clipPath>
				<path class="st40" d="M414,90.7h71.4c0.6,0,1.2,0.1,1.7,0.2c0.6,0.1,1.1,0.3,1.7,0.5c0.5,0.2,1.1,0.5,1.5,0.8
					c0.5,0.3,0.9,0.7,1.4,1.1c0.4,0.4,0.8,0.9,1.1,1.4c0.3,0.5,0.6,1,0.8,1.5c0.2,0.5,0.4,1.1,0.5,1.7c0.1,0.6,0.2,1.2,0.2,1.7v26.7
					c0,0.6-0.1,1.2-0.2,1.7c-0.1,0.6-0.3,1.1-0.5,1.7c-0.2,0.5-0.5,1.1-0.8,1.5c-0.3,0.5-0.7,0.9-1.1,1.4c-0.4,0.4-0.9,0.8-1.4,1.1
					c-0.5,0.3-1,0.6-1.5,0.8c-0.5,0.2-1.1,0.4-1.7,0.5c-0.6,0.1-1.2,0.2-1.7,0.2H414c-0.6,0-1.2-0.1-1.7-0.2
					c-0.6-0.1-1.1-0.3-1.7-0.5c-0.5-0.2-1.1-0.5-1.5-0.8c-0.5-0.3-0.9-0.7-1.4-1.1c-0.4-0.4-0.8-0.9-1.1-1.4s-0.6-1-0.8-1.5
					c-0.2-0.5-0.4-1.1-0.5-1.7c-0.1-0.6-0.2-1.2-0.2-1.7V99.6c0-0.6,0.1-1.2,0.2-1.7c0.1-0.6,0.3-1.1,0.5-1.7
					c0.2-0.5,0.5-1.1,0.8-1.5c0.3-0.5,0.7-0.9,1.1-1.4c0.4-0.4,0.9-0.8,1.4-1.1c0.5-0.3,1-0.6,1.5-0.8c0.5-0.2,1.1-0.4,1.7-0.5
					C412.9,90.7,413.4,90.7,414,90.7z"/>
			</g>
		</g>
	</g>
</g>
<g>
	<defs>
		<rect id="SVGID_61_" width="632" height="186.9"/>
	</defs>
	<clipPath id="SVGID_62_">
		<use xlink:href="#SVGID_61_"  style="overflow:visible;"/>
	</clipPath>
	<g class="st41">
		<text transform="matrix(1.0015 0 0 1 410.7148 111.6192)" class="st27 st6 st7">Dynamic Control</text>
	</g>
	<g class="st41">
		<text transform="matrix(1.0015 0 0 1 488.7139 111.6192)" class="st27 st6 st7"> </text>
	</g>
	<g class="st41">
		<text transform="matrix(1.0015 0 0 1 418.918 123.4746)" class="st27 st6 st7">Re-</text>
	</g>
	<g class="st41">
		<text transform="matrix(1.0015 0 0 1 435.9229 123.4746)" class="st27 st6 st7"> </text>
	</g>
	<g class="st41">
		<text transform="matrix(1.0015 0 0 1 435.9229 123.4746)" class="st27 st6 st7">allocation</text>
	</g>
	<line class="st42" x1="449.7" y1="48.9" x2="449.7" y2="86.2"/>
	<polygon class="st43" points="453,85.1 449.7,90.7 446.4,85.1 	"/>
	<line class="st42" x1="494.7" y1="26.2" x2="534.7" y2="26.2"/>
	<polygon class="st43" points="533.6,22.9 539.2,26.2 533.6,29.6 	"/>
	<g class="st41">
		<text transform="matrix(1.0015 0 0 1 202.7402 178.8672)" class="st27 st44 st7">Embedded Fault Tolerant Control Architecture</text>
	</g>
</g>
</svg>
